<svg version="1.2" xmlns="http://www.w3.org/2000/svg" viewBox="0 0 300 150" width="300" height="150">
	<title>New Project</title>
	<style>
		.s0 { fill: #000000 } 
		.s1 { opacity: 1;fill: #020202 } 
		.s2 { opacity: 1;fill: #050505 } 
		.s3 { opacity: 1;fill: #030303 } 
		.s4 { opacity: 1;fill: #060606 } 
	</style>
	<path id="Code Witchers" class="s0" aria-label="Code Witchers"  d="m58.4 108.8c-4.1 0-7.7 3.2-7.7 9.2 0 6.1 3.4 9.3 7.8 9.3 2.6 0 4.3-0.9 5.4-2l-1.2-1.4c-1 0.7-2.2 1.5-4.2 1.5-3 0-5.4-2-5.4-7.4 0-5.4 2.6-7.3 5.5-7.3 1.3 0 2.6 0.4 3.7 1.3l1.3-1.5c-1.4-1.1-2.9-1.7-5.2-1.7zm14.1 4.2c-3.8 0-5.9 3-5.9 7.2 0 4.3 2.1 7.1 5.9 7.1 3.8 0 5.9-3 5.9-7.2 0-4.3-2-7.1-5.9-7.1zm0 1.8c2.4 0 3.5 1.7 3.5 5.3 0 3.7-1.1 5.4-3.5 5.4-2.4 0-3.5-1.7-3.5-5.3 0-3.7 1.2-5.4 3.5-5.4zm18.6-7.3v7.2c-0.9-1.1-2.1-1.7-3.7-1.7-3.3 0-5.3 3.1-5.3 7.2 0 4.2 1.6 7.1 5.2 7.1 1.5 0 2.9-0.7 3.9-2.1l0.2 1.8h1.9v-19.2zm-3.1 7.2c1.3 0 2.3 0.7 3.1 1.8v6.8c-0.8 1.2-1.8 2.2-3.4 2.2-2.1 0-3.3-1.8-3.3-5.4 0-3.6 1.3-5.4 3.6-5.4zm12.2 6.2h9.2c0.1-0.3 0.1-0.7 0.1-1.2 0-4.2-2.1-6.7-5.6-6.7-3.6 0-6 3-6 7.1 0 4.3 2.3 7.1 6.3 7.1 1.7 0 3.4-0.6 4.7-1.5l-1-1.5c-1.3 0.8-2.3 1.2-3.7 1.2-2.1 0-3.9-1.4-4-4.5zm3.7-6.1c2.1 0 3.4 1.5 3.5 4.4h-7.2c0.2-3 1.7-4.4 3.7-4.4zm38.7-5.8h-2.1l-2.2 15.5-2-13.4h-2.8l-2.1 13.4-1.9-15.5h-2.3l2.5 18h3.1l2-13.6 2.1 13.6h3zm7.9-2.2c-1 0-1.6 0.6-1.6 1.5 0 0.9 0.6 1.5 1.6 1.5 0.9 0 1.6-0.6 1.6-1.5 0-0.9-0.7-1.5-1.6-1.5zm1.7 6.4h-6.2v1.7h4v10.2h-4.2v1.8h10.3v-1.8h-3.9zm19.6 13l-0.9-1.4c-0.7 0.3-1.6 0.6-2.6 0.6-1.9 0-2.6-0.8-2.6-2.3v-8.2h4.4l0.3-1.7h-4.7v-3.3l-2.2 0.2v3.1h-3.2v1.7h3.2v8.2c0 2.4 1.6 4.1 4.6 4.1 1.3 0 2.7-0.3 3.7-1zm10.9-0.9c-2.4 0-4.1-1.5-4.1-5.2 0-3.6 1.7-5.3 4.1-5.3 1.2 0 2.3 0.4 3.5 1.2l1.1-1.4c-1.3-1.1-2.8-1.7-4.6-1.7-4.1 0-6.5 3.1-6.5 7.2 0 4.3 2.4 7.1 6.5 7.1 1.6 0 3.4-0.6 4.6-1.6l-1-1.4c-1.1 0.7-2.2 1.1-3.6 1.1zm11.6-17.8l-2.2 0.2v19.2h2.2v-9.9c0.7-1.1 2.1-2.3 3.6-2.3 1.7 0 2.4 0.7 2.4 2.3v9.9h2.2v-9.9c0-2.5-1.2-4.1-3.8-4.1-1.7 0-3.3 0.8-4.4 2.2zm15.1 13.4h9.2c0.1-0.3 0.1-0.7 0.1-1.2 0-4.2-2.2-6.7-5.6-6.7-3.7 0-6 3-6 7.1 0 4.3 2.3 7.1 6.3 7.1 1.7 0 3.4-0.6 4.7-1.5l-1-1.5c-1.3 0.8-2.3 1.2-3.7 1.2-2.1 0-3.9-1.4-4-4.5zm3.7-6.1c2.1 0 3.4 1.5 3.4 4.4h-7.1c0.2-3 1.7-4.4 3.7-4.4zm19.4-1.8c-2.4 0-3.8 1.3-4.9 3.5l-0.4-3.2h-3.8v1.6h2.2v10.4h-2.2v1.7h7.1v-1.7h-2.7v-5.8c0.8-3 2.3-4.5 4.5-4.5h0.1v2.9h1.7l0.4-4.6c-0.6-0.2-1.2-0.3-2-0.3zm11.1 12.4c-1.7 0-3.1-0.6-4.2-1.4l-1.2 1.4c1.2 1 2.9 1.8 5.4 1.8 2.9 0 5.7-1.1 5.7-4 0-2.6-1.8-3.5-4.4-4.3-2.8-0.7-3.7-1.1-3.7-2.4 0-1 0.8-1.8 3-1.8 1.8 0 2.9 0.6 4 1.3l1-1.5c-1.2-0.9-2.8-1.5-5-1.5-3.1 0-5.2 1.4-5.2 3.7 0 2.4 1.8 3.3 4.6 4 3 0.7 3.3 1.3 3.3 2.6 0 1.3-1.2 2.1-3.3 2.1z"/>
	<g id="diseno-logotipo-cara-mago-blanco-negro_497517-273">
		<path id="Path 0" fill-rule="evenodd" class="s1" d="m151.6 17.9c1 0.1 2.6 0.5 3.7 1 1.1 0.5 2.6 1.4 3.3 2 0.8 0.7 1.4 1.8 1.4 2.6 0 0.8-0.5 1.4-1.2 1.4-0.6 0-1.3 0.6-1.5 1.4-0.3 0.7-0.1 1.8 0.4 2.3 0.4 0.6 0.6 1.6 0.4 2.4-0.2 0.8 0.3 2.1 1 2.9 0.8 0.9 1.2 2.6 1.1 4.1-0.1 2.2-0.5 2.7-1.9 2.6-1.1 0-2.9 1.2-4.4 2.8-1.4 1.5-3.3 2.8-4.1 2.8-0.9 0-2.1-0.5-2.8-1.2-0.6-0.6-1.2-0.8-1.2-0.4 0 0.5-0.7 0.4-1.7-0.2-1-0.5-2-1.2-2.2-1.4-0.2-0.3-1-0.7-1.8-1q-1.4-0.6-1.4 0.6c0 0.8-0.5 1.1-3.1 0.4l1.6-1.5c1.1-1.2 1.5-2.4 1.3-4.6-0.2-1.6 0.1-3.8 0.6-4.9 0.6-1.1 0.9-2.4 0.7-3-0.2-0.5 0.2-1.5 0.7-2.2 0.5-0.6 1.6-1.2 2.4-1.2 0.7 0.1 1.3-0.4 1.2-0.9-0.1-0.5 1.2-2.2 2.8-3.9 1.7-1.6 3.8-2.9 4.7-2.9zm-2.8 17c0.5-0.3 1-0.7 1-0.9 0-0.3-0.2-0.4-0.4-0.4-0.2 0-0.6 0.4-1 0.9q-0.6 1 0.4 0.4zm10.9 47.1c0.1 0 0.4 1.6 0.7 3.4 0.2 2 0.1 3.4-0.4 3.4-0.4 0-1.3 1-1.9 2.2-0.8 1.6-0.9 2.5-0.2 3.7 0.7 1.3 0.7 1.4-0.3 0.6-0.9-0.8-1.3-0.8-2.1 0-0.5 0.5-1.1 1.6-1.2 2.3-0.1 0.7-1.2 2-2.4 2.9-1.9 1.5-2.3 1.6-3.5 0.5-0.8-0.6-1.7-0.9-2-0.6-0.3 0.3-0.6 0.2-0.6-0.4 0-0.5-0.3-1-0.8-1-0.4 0-1.4-0.6-2.2-1.3-0.8-0.8-2.2-2-3.1-2.6-1-0.7-1.9-1.8-2.1-2.6-0.4-1.1-0.2-1.2 1.1-0.6q1.6 0.8 2 0c0.2-0.4 0-1.5-0.4-2.3-0.4-0.9-0.8-2.1-0.8-2.6 0-0.6 1.2-1.1 2.8-1.2 2.3-0.1 2.8 0.1 3.2 1.6 0.3 1 1.1 2.5 1.8 3.4 0.7 0.8 1.8 1.5 2.5 1.5 0.6 0 1.6-0.5 2.1-1.2 0.6-0.6 1.8-2.6 2.7-4.5 1-1.8 2.4-3.7 3.3-4 0.9-0.4 1.7-0.7 1.8-0.6zm-27.6 6.8c0.2 0 0.5 0.7 0.7 1.6 0.3 1.1 0.1 1.4-0.8 1.1-0.6-0.2-1-0.9-0.7-1.5 0.3-0.7 0.6-1.2 0.8-1.2z"/>
		<path id="Path 1" class="s2" d="m164.8 24.5c0.6 0.7 1.2 1 1.3 0.8 0.2-0.2 0.1-0.8-0.2-1.2-0.2-0.4-0.8-0.8-1.3-0.8-0.7 0-0.6 0.4 0.2 1.2zm0.2 6.2c0.3 0.7 0.6 1.5 0.6 1.7 0 0.2 0.3 0.2 0.7 0 0.5-0.2 0.8-0.7 0.8-1.1 0-0.4-0.6-1-1.4-1.3-1-0.4-1.2-0.3-0.7 0.7zm-5 6c0 0.7 0.3 0.9 0.6 0.6 0.3-0.3 0.3-0.8 0-1.2-0.3-0.3-0.6 0-0.6 0.6zm0.3 3.7c-0.3 0.3-0.5 1.5-0.4 2.8 0.1 1.5-0.2 2.2-1.1 2.2-0.6 0-1 0.4-0.7 0.8 0.2 0.4 0.9 0.6 1.5 0.4 0.8-0.3 1.4 0.2 1.6 1.2 0.2 0.8 0.9 1.6 1.4 1.6 0.5 0 1.6 0.6 2.4 1.3 1.2 1.2 1.4 1.2 1.4 0.2-0.1-0.6-0.3-1.5-0.7-2-0.3-0.5-1.2-1.1-1.9-1.4-0.8-0.3-1.4-1.2-1.4-2.1 0-1.2 0.5-1.6 2-1.6 1.2 0 1.9 0.5 1.9 1.2 0 0.7 0.7 1.2 1.6 1.2 0.9 0 1.6-0.2 1.6-0.4 0-0.2 0.2-0.8 0.4-1.4 0.2-0.5-0.1-1-0.7-1-0.6 0-1 0.3-0.8 0.6 0.2 0.3 0 0.6-0.5 0.6-0.4 0-1.1-0.7-1.6-1.6-0.4-0.9-1.3-1.4-1.9-1.2-0.7 0.3-1.7-0.1-2.3-0.7-0.7-0.6-1.4-0.9-1.8-0.7zm-32.9 3c-0.7 0.7-1.1 1.6-0.9 2 0.2 0.4 1.6 0.8 3 0.8 1.4 0 3.1 0.3 3.7 0.7 0.8 0.5 1 1 0.4 1.8-0.4 0.6-0.8 1.7-1 2.4-0.1 0.8 0.2 1.4 0.6 1.4 0.4 0 1-0.4 1.2-0.8 0.2-0.4 0.7-0.8 1.2-0.8 0.4 0 0.6 0.4 0.4 0.8-0.2 0.4-0.1 0.8 0.4 0.8 0.4 0 1 0 1.3 0 0.4 0 0.6-1.1 0.6-2.4 0-1.3 0.5-2.5 1-2.7 0.6-0.2 1-0.8 1-1.2 0-0.4-0.5-0.3-1.2 0.4-0.8 0.8-1.5 0.9-2.5 0.4-0.8-0.4-1.6-0.6-1.8-0.4-0.2 0.2-1.1-0.3-2-1.2-0.9-0.9-2.2-1.6-2.9-1.6-0.8 0-1.3-0.3-1.1-0.8 0.2-0.4 0.3-0.8 0.1-0.8-0.2 0-0.9 0.6-1.5 1.2zm2.9-0.6c0.3 0.3 0.8 0.4 1.1 0 0.3-0.3 0-0.6-0.6-0.6-0.6 0-0.9 0.3-0.5 0.6zm44.7 17.6c-0.1 1.1-0.2 2.7-0.1 3.5 0.1 0.9 0 2.1-0.3 2.8-0.3 1-0.6 0.9-1.5-0.4-1-1.4-1-1.2-0.7 2 0.4 3.1 0.2 3.7-1.6 5.3-1.2 1-2.4 1.6-2.9 1.4-0.4-0.2-0.8 0.5-0.8 1.6 0 1 0.4 2.1 0.8 2.3 0.5 0.2 0.8 0.1 0.8-0.4 0-0.4 0.4-0.6 0.8-0.4 0.4 0.2 0.8-0.1 0.8-0.8 0-0.6 0.3-1.1 0.8-1.1 0.4 0 0.8 0.8 0.9 1.7 0.1 1 0.1 2.4 0 3.2-0.1 0.9 0.7 0.5 2.6-1.6 2.2-2.4 2.9-3.8 3.4-7.6 0.4-3.2 0.3-5-0.4-6.1-0.6-0.8-1.3-2.8-1.7-4.4-0.6-2.5-0.8-2.7-0.9-1zm-53.9 3.9c-0.4 2.6-0.3 4.5 0.1 4.8 0.4 0.2 0.9 1.5 1.1 2.9 0.1 1.4 0 2.6-0.3 2.6-0.4 0-0.7-1.2-0.7-2.6l-0.2-2.5c-0.5 4-0.2 5 0.8 5.7 0.8 0.5 1.1 1 0.7 0.9-0.5 0 0.5 1.3 2.1 2.8 1.7 1.5 2.9 3 2.9 3.4-0.1 0.3 0.3 1.6 0.9 2.8 0.7 1.2 1.6 2.3 2.1 2.5 0.6 0.2 1.2-0.1 1.4-0.8 0.3-1 0.6-1 1.6-0.2 0.7 0.6 1.3 0.6 1.2 0.2 0-0.4-0.7-1.5-1.5-2.4-0.9-0.8-1.5-1.8-1.3-2.1 0.3-0.4 1.7-0.4 3.2 0 2.5 0.5 2.7 0.4 2.6-1.4-0.1-1.1-0.6-2.3-1-2.8-0.5-0.4-1.3-0.8-1.8-0.8-0.5 0-1.7-0.5-2.6-1.1-1-0.7-2.6-1.8-3.6-2.6-1.1-0.8-1.7-1.7-1.5-2.2 0.2-0.4 0-0.9-0.4-1.2-0.4-0.2-1.6-1.7-2.7-3.3-1-1.6-2-3.9-2.2-4.9-0.2-1.4-0.5-0.6-0.9 2.3zm45 1c0.3 0.8 0.8 1.2 1 1 0.2-0.2 0-0.9-0.6-1.4-0.8-0.8-0.9-0.7-0.4 0.4zm-2.5 6.5c0 2.4 0.2 4.4 0.6 4.4 0.3 0 0.8-1.2 1-2.6 0.3-1.4 0.4-3.2 0.2-4.1-0.1-0.8-0.6-1.6-1-1.8-0.5-0.1-0.8 1.6-0.8 4.1zm3.6 0.8c-0.9 1.1-1.6 2.3-1.6 2.8 0 0.4 0.8-0.1 1.9-1.2 1.1-1.1 1.9-2.3 1.7-2.7-0.1-0.5-1 0.1-2 1.1zm-9.9-0.4c-0.2 0.5-0.1 1.3 0.4 2 0.4 0.6 1.1 1 1.5 0.8 0.5-0.2 0.8 0.5 0.8 1.6 0 1 0.3 1.9 0.6 1.9 0.3 0 0.6-1.2 0.6-2.8 0-1.6-0.5-3.1-1.2-3.5-0.6-0.4-1.4-0.8-1.7-0.8-0.3 0-0.8 0.4-1 0.8zm-19.1 2.2c-0.3 0.3-0.3 2.2 0.1 4.1 0.6 3.4 0.7 3.6 3.5 3.7 1.6 0.1 2.4 0 1.9-0.2-0.7-0.2-0.8-1.1-0.4-3.1 0.3-1.8 0.3-2.8-0.3-2.8-0.4 0.1-1.3 0.5-1.8 1-0.9 0.9-1 0.6-0.8-1.1 0.2-1.4-0.1-2.2-0.6-2.2-0.6 0-1.3 0.3-1.6 0.6zm24.4 3.1c0.3 0.4 0.8 0.4 1.1 0 0.3-0.3 0-0.6-0.6-0.6-0.6 0-0.8 0.3-0.5 0.6zm1 5.7c-0.2 0.5-0.2 1.1 0 1.4 0.2 0.4 0 1.3-0.4 2-0.5 0.8-0.5 1.4-0.2 1.4 0.4 0 1-0.4 1.4-0.8 0.4-0.5 1.4-0.9 2.2-1 1-0.1 1.7-0.9 1.9-2.2l0.3-1.9c-4.6 4.3-4.9 4.4-4.1 2.9 0.5-1 0.5-1.9 0.1-2.1-0.4-0.3-0.9-0.1-1.2 0.3zm-28 3.6c0.1 0.9 0.2 1.1 0.3 0.6 0.1-0.6 0.1-1.3-0.1-1.6-0.1-0.3-0.2 0.1-0.2 1zm31.7 1c0.4 0.3 0.9 0.3 1.1 0 0.3-0.3 0.1-0.6-0.5-0.6-0.7 0-0.9 0.2-0.6 0.6zm-0.2 2.6c-1 0.6-1 0.7 0.2 0.7 0.8 0 1.4-0.3 1.4-0.7 0-0.5-0.1-0.8-0.2-0.8-0.1 0-0.7 0.3-1.4 0.8zm-9.3 1.8c-0.4 0.6-0.5 1.5 0 2.3 0.4 1 0.3 1.4-0.3 1.3-0.6-0.1-1.5-0.1-2 0-0.5 0-1 0.8-1 1.7 0 0.8 0.4 1.5 0.8 1.5 0.4 0 1-0.5 1.2-1.1 0.2-0.7 1.1-1.4 2-1.6 0.8-0.2 2-1.3 2.5-2.4 0.6-1.1 1-2.2 1-2.5-0.1-0.3-0.7-0.1-1.4 0.4-0.8 0.5-1.5 0.6-1.7 0.2-0.1-0.4-0.6-0.3-1.1 0.2z"/>
		<path id="Path 2" class="s3" d="m148.1 18.5c-1 0.8-1.7 1.7-1.5 2 0.2 0.2 1.3-0.4 2.3-1.5 1.1-1.1 1.7-2 1.5-2-0.2 0-1.3 0.7-2.3 1.5zm3.3-0.7c0 0.4 0.3 0.6 0.7 0.4 0.5-0.2 0.8-0.6 0.8-0.8 0-0.2-0.3-0.4-0.8-0.4-0.4 0-0.7 0.4-0.7 0.8zm8.9 5.5c0 1.5 0.5 2.8 0.9 2.8 0.4 0 1.6 0.5 2.6 1 1 0.5 1.8 1.5 1.8 2.1 0 0.7 0.3 1.2 0.7 1.2 0.5 0 1-0.5 1.2-1.2 0.2-0.6-0.6-2.4-1.9-3.9-1.4-1.5-2.6-2.5-2.8-2.2-0.3 0.3-0.4 0.2-0.4-0.4 0-0.5-0.4-0.8-0.8-0.6-0.4 0.2-0.9 0-1.1-0.6-0.2-0.5-0.3 0.3-0.2 1.8zm-17.2 2.4c-0.7 0-1.2-0.4-1.2-0.8 0-0.4 0.5-0.8 1.2-0.8 0.6 0 1.2 0.4 1.2 0.8 0 0.4-0.6 0.8-1.2 0.8zm14.4 2.8c-0.3 0-0.6-0.5-0.6-1 0-0.6 0.3-1 0.6-1 0.4 0 0.7 0.4 0.7 1 0 0.5-0.3 1-0.7 1zm2.5 10.6c0 1.1-0.6 1.6-2.1 1.8-1.1 0.1-2.8 1.1-3.7 2.3-0.9 1.2-1.5 2.4-1.3 2.6 0.2 0.2 1.9 0.1 3.7-0.2 2.9-0.5 3.4-0.9 3.7-3 0.1-1.3 0.5-3 0.7-3.7 0.2-0.8 0.1-1.4-0.3-1.4-0.4 0-0.7 0.7-0.7 1.6zm-23.4 2.5q-0.6 1 0.4 0.4c0.5-0.3 0.9-0.7 0.9-0.9 0-0.3-0.1-0.4-0.3-0.4-0.2 0-0.7 0.4-1 0.9zm-4.5 0.6c-0.3 0.5-1.3 0.9-2.2 0.9-1.6 0.1-1.7 0.2-0.2 0.5 0.8 0.2 2.1 0.8 2.7 1.3 0.7 0.6 2.2 1.4 3.4 1.9 1.8 0.8 2.3 0.8 3.1-0.3 0.8-1 1.8-1.1 4.4-0.8 2.8 0.4 3.3 0.3 3.3-0.9-0.1-0.8-0.3-0.9-0.4-0.4-0.3 0.8-0.7 0.8-2.1 0-1-0.5-2-1.2-2.2-1.4-0.2-0.3-1-0.7-1.8-1q-1.4-0.6-1.4 0.6 0 1.2-1.5 0.8c-0.9-0.2-1.6-0.7-1.6-1.2 0-0.4-0.7-0.7-1.6-0.7-0.8 0-1.7 0.3-1.9 0.7zm-10.2 32.4c-0.3 0-0.5-1.3-0.5-2.8 0-1.5 0.2-2.7 0.5-2.7 0.2 0 0.5 1.2 0.5 2.7 0 1.5-0.3 2.8-0.5 2.8zm37.4 1.6c0 1.6-0.2 1.7-1 0.9-0.6-0.5-1.4-1-1.8-1-0.5 0-0.6 1.1-0.2 2.8 0.4 2.1 0.3 3-0.6 3.8-0.7 0.5-1.1 1-1 1.2 0.1 0.1 1.3-0.4 2.6-1 2.1-1.1 2.4-1.1 2.6 0.2 0.1 0.7 0.4 1.9 0.6 2.5 0.3 0.9 0.9 0.6 2.3-1.2 1-1.3 2.1-2.1 2.3-1.7 0.3 0.3 0.1 1.4-0.4 2.3-0.8 1.5-0.5 1.4 1.6-0.6l2.5-2.3c-0.4 4.6-0.8 5.9-1.1 5.9-0.3 0-0.6 0.6-0.6 1.4 0 1.2 0.1 1.2 1.2 0.2 0.7-0.7 1.2-1.5 1.2-1.8 0-0.3 0.6-1.6 1.4-2.8 0.7-1.2 1.3-2.8 1.3-3.7-0.1-0.9-0.2-2.4-0.2-3.4-0.1-0.9-0.5-1.7-0.9-1.7-0.5 0-0.8 0.5-0.8 1.1 0 0.7-0.4 1-0.8 0.8-0.4-0.2-0.9 0.1-1.1 0.6-0.2 0.6-0.6 0.3-1-0.8-0.4-1-1.1-1.9-1.7-2.2-0.5-0.2-1.4 0.5-1.9 1.6-0.6 1.1-1.3 1.7-1.7 1.4-0.5-0.3-0.6 0.2-0.2 1.2 0.3 1 0.2 1.8-0.3 1.8-0.4 0-1.1-1.7-1.5-3.8-0.4-2-0.7-2.8-0.8-1.7zm-27.2 6.1c-0.2 0.3 0.6 1.6 1.7 2.9q2.1 2.4 1.4 0.8c-0.3-0.8-0.7-2.2-0.8-2.9-0.1-0.8-0.5-1.4-1-1.4-0.5 0-1.1 0.2-1.3 0.6zm4.8 0.1c-0.8 0.2-1.4 0.8-1.3 1.3 0.1 0.4 0.9 1.2 1.7 1.7 0.8 0.6 1.3 1.4 1 1.8-0.2 0.4 0.1 1.1 0.6 1.5 0.8 0.5 0.9 0.2 0.7-1.4-0.3-1.5-0.1-1.9 0.6-1.5 0.5 0.3 2 0.4 3.3 0.2 2.3-0.4 2.3-0.4 1-1.9-0.8-0.9-2.5-1.7-3.8-1.9-1.3-0.2-3-0.1-3.8 0.2zm-6.7 6.5c0.1 0.8 0.5 1.1 1 0.6 0.5-0.4 1.1-0.4 1.5-0.1 0.3 0.3 0.4 0 0.2-0.6-0.3-0.7-1.1-1.2-1.7-1.3-0.8 0-1.2 0.5-1 1.4zm25.6 6c-0.2 0.3 0.1 0.6 0.7 0.6 0.5 0 0.9-0.3 0.7-0.6-0.2-0.3-0.5-0.6-0.7-0.6-0.2 0-0.5 0.3-0.7 0.6z"/>
		<path id="Path 3" fill-rule="evenodd" class="s4" d="m146.3 20.9c0.2 0 0.3 0.1 0.3 0.2 0.1 0.1-0.7 0.9-3.5 3.4l1.5-1.8c0.8-1 1.6-1.8 1.7-1.8zm-4.8 4c0.2 0 0.4 0.2 0.4 0.4 0 0.2-0.5 0.6-1 1q-1 0.6-0.4-0.4c0.4-0.6 0.8-1 1-1zm17.7 0c0.6 0 0.9 0.3 0.6 0.6-0.3 0.3-0.8 0.3-1.2 0-0.3-0.4 0-0.6 0.6-0.6zm-20.7 9.7c0.4 0.3 0.4 0.8 0 1.1-0.3 0.4-0.6 0.1-0.6-0.6 0-0.6 0.3-0.9 0.6-0.5zm29.2 7.3c1.2 0.3 3 0.9 4 1.2 0.9 0.4 1.7 1.3 1.7 1.9 0 0.7-0.5 1.2-1.1 1.2-0.7 0-1.8 0.3-2.6 0.6-1.1 0.5-1.2 0.4-0.4-1.2 0.6-1 1-1.9 1-2 0-0.1-0.5-0.2-1.1-0.2-0.6 0-1 0.3-0.8 0.6 0.2 0.3 0 0.6-0.5 0.6-0.4 0-1.1-0.7-1.6-1.6-0.7-1.5-0.6-1.6 1.4-1.1zm-3.3 1.9q1.9 0 2 1.4c0.1 0.8 0.1 1.7 0 2.2-0.1 0.4 0.4 2.4 1.2 4.3 1.2 3.2 1.4 3.4 2.4 2.2 0.6-0.8 1.2-1.1 1.5-0.6 0.2 0.4 0.6 3.2 1.4 11.4l1.9-6.3v4c0 2.1-0.1 4.2-0.3 4.5-0.1 0.3-0.8 0-1.5-0.8q-1.3-1.4-0.7-0.2c0.2 0.7-0.1 0.5-0.8-0.4-0.7-0.9-1.8-3.3-2.5-5.5-0.7-2.2-1.6-4.3-2-4.7-0.4-0.5-0.4 1.5-0.1 4.7 0.5 4.7 0.4 5.4-0.6 4.7-0.8-0.5-1-0.5-0.6 0.2 0.4 0.6 0.5 1.5 0.2 2.2-0.2 0.6-0.9 1-1.5 0.8-0.7-0.2-1.2 0-1.2 0.6 0 0.5-1-0.6-2.3-2.6-1.6-2.7-3-3.8-5.3-4.5-1.7-0.5-3.3-0.8-3.7-0.6-0.3 0.2-0.5 0.7-0.5 1.2 0 0.4 1.1 0.8 2.5 0.9 2.3 0.2 2.9 0.8 4.8 4.6 2.2 4.3 2.2 4.3 0.2 2-1.1-1.3-2.5-3-3.2-3.8-0.8-0.9-1.8-1.2-3-0.9-0.9 0.3-2.3 0.5-2.9 0.5-0.7 0-2-0.2-3-0.5-1.1-0.3-2.2 0-3 0.9-0.6 0.8-2.1 2.5-3.2 3.8-2 2.3-2 2.3 0.2-2 2-3.8 2.6-4.4 4.8-4.6 1.4-0.1 2.6-0.5 2.6-0.9 0-0.5-0.3-1-0.6-1.2-0.3-0.2-2 0.1-3.7 0.6-2.2 0.7-3.6 1.8-5 4.1-1.1 1.7-2.3 4.8-2.7 6.7-0.4 2.5-0.3 3.9 0.4 4.6 0.5 0.5 0.7 1.2 0.3 1.5-0.3 0.4-0.6 0.2-0.6-0.4 0.1-0.5-0.4-0.8-0.9-0.5-0.6 0.2-1.8-0.3-2.9-1-1-0.8-2.6-2.1-3.5-3-1-0.9-1.2-1.1-0.6-0.6 0.7 0.5 1.5 1 1.9 1 0.3 0 0.1-1.1-0.4-2.3-0.9-2.1-0.8-2.6 0.6-4.2 1.3-1.3 1.9-3.3 2.2-7.3 0.3-3.2 0.2-5.2-0.2-4.7-0.4 0.4-1.1 2.2-1.7 3.9-0.5 1.7-1.6 4.5-2.4 6.1-0.9 1.8-1.3 3.5-0.9 4.4 0.4 0.9 0.3 1.2-0.4 0.7-0.6-0.3-1.9-2-3-3.7-1-1.7-2-4-2-4.9-0.1-1-0.5 0-2.1 6.1l0.4-5.5c0.2-3.4 0.9-6.3 1.7-7.5 0.7-1.1 1.6-2.7 2-3.6 0.6-1.5 0.6-1.5 1.5 0.3 0.7 1.4 0.7 2.4-0.1 4.3-0.7 1.8-0.8 3.1-0.2 4.7 0.4 1.2 0.6 2.5 0.4 2.9-0.2 0.5-0.1 0.8 0.2 0.8 0.3 0 0.9-2.3 1.2-5.1 0.3-2.8 0.8-5.5 1-5.9 0.2-0.5 0.9-0.2 1.4 0.6 1 1.2 1.2 1.1 2-1.2 0.5-1.4 1.1-2.6 1.3-2.6 0.2 0 0.2 0.6 0 1.2-0.2 0.7 0 1.2 0.4 1.2 0.4 0 1-0.4 1.2-0.8 0.2-0.4 0.7-0.8 1.2-0.8 0.4 0 0.6 0.4 0.5 0.8-0.1 0.4 0.1 0.8 0.6 0.9 0.5 0 1.1 0 1.4 0 0.4-0.1 1.1 1.5 1.6 3.5 0.6 2.1 1.5 3.9 2.2 4.1 0.6 0.3 2.1 0.1 3.1-0.4 1.6-0.7 2.3-0.6 3.4 0.5 1.2 1.2 1.4 1.2 2.7-0.1 1-0.9 1.8-1.1 2.8-0.5 0.8 0.4 2.1 0.6 3.1 0.5 1.3-0.2 1.9-1.2 3-4.9 0.8-2.6 1.3-5.5 1.1-6.4-0.2-0.8-0.1-1.1 0.1-0.5 0.2 0.5 0.9 1 1.4 1 0.5 0 1.6 0.6 2.4 1.3 1.2 1.2 1.4 1.2 1.4 0.2-0.1-0.6-0.3-1.5-0.7-2-0.3-0.5-1.2-1.1-1.9-1.4-0.8-0.3-1.4-1.2-1.4-2.1 0-1.2 0.5-1.6 2-1.6zm-2.4 17.4c0.7 1.7 1.5 3.1 2 3.1 0.4 0 0.8-1.8 0.8-4.1 0-2.3-0.5-4.9-1.1-5.7-1-1.5-1.1-1.5-2 1-0.7 2-0.6 3.2 0.3 5.7zm-27.2-0.8c0 2.2 0.3 3.9 0.8 3.9 0.4 0 1.3-1.4 1.9-3.1 0.9-2.3 1-3.7 0.4-5.2-0.4-1-1.1-1.9-1.5-1.9-0.4 0-0.9 0.5-1.2 1.2-0.2 0.6-0.4 2.9-0.4 5.1zm-4.1 9.7c0.1 0.3 0.9 1.5 1.7 2.7l1.7 2.2c-0.1-6.4-0.2-8.3-0.4-8.3-0.1 0-0.9 0.6-1.7 1.4-0.8 0.8-1.4 1.7-1.3 2zm11.9-24.7c0.6 0 0.9 0.3 0.6 0.6-0.3 0.3-0.8 0.3-1.1 0-0.3-0.4-0.1-0.6 0.5-0.6zm14.2 0c0.6 0 0.9 0.3 0.6 0.6-0.3 0.3-0.8 0.3-1.1 0-0.3-0.4-0.1-0.6 0.5-0.6zm18.4 5.1c0.4 0.3 0.7 0.8 0.7 1.3-0.1 0.4 0.7 1.7 1.6 2.9 1.1 1.5 1.5 2.8 1.2 4.5-0.2 1.3 0 3.5 0.5 4.9 0.7 1.9 0.7 2.9-0.1 4.3-0.5 1-0.8 1.3-0.7 0.7 0.2-0.7-0.3-2.5-1.1-4-0.8-1.5-1.5-3.4-1.5-4.1 0-0.8-0.6-2.6-1.3-4-0.8-1.6-1.1-3.3-0.7-4.7 0.3-1.2 0.9-2 1.4-1.8zm-6.4 16.2c0.8 1.1 1.5 2.7 1.5 3.5 0 1.4-0.3 1.3-1.9-0.7-1-1.3-1.7-2.9-1.5-3.6 0.4-0.9 0.8-0.7 1.9 0.8zm-5.1 3.5c0.2 0.5 0.2 1.4 0 2-0.2 0.7-0.4 0.3-0.4-0.8 0-1.1 0.2-1.6 0.4-1.2zm8.9 0.9c0.2 0.2-0.4 1.2-3.3 3.9l1.4-2.1c0.8-1.2 1.6-2 1.9-1.8zm-31.2 0.7c0.4 0.1 0.7 1 0.6 1.9-0.1 1 0.3 1.7 1.1 1.7 0.7 0 1.1 0.7 1.1 2.1 0 1.2-0.3 2.7-0.7 3.4q-0.8 1.2-0.2-1.8c0.4-1.9 0.3-3-0.3-3-0.4 0.1-1.3 0.5-1.8 1-0.9 0.9-1 0.6-0.5-1.3 0.5-2.2 0.4-2.3-1.1-1.8-0.9 0.3-1.7 0.3-1.8-0.2-0.1-0.4 0.6-1.1 1.4-1.5 0.8-0.5 1.8-0.7 2.2-0.5zm27 1.2c0.1 0 0.3 0.5 0.3 1.2 0 0.6-0.3 1-0.8 0.8-0.4-0.2-0.8 0-0.8 0.6-0.1 0.8-0.2 0.8-0.4 0-0.2-0.6-0.7-0.8-1.1-0.6-0.5 0.2-0.8 0-0.8-0.4 0-0.5 0.5-0.6 1.1-0.4 0.7 0.2 1.4 0 1.7-0.4 0.2-0.4 0.6-0.8 0.8-0.8zm-9.8 2.2c0.5 0.1 0.8 0.9 0.7 1.6 0 1.1-0.2 1.1-1 0.3-0.6-0.5-1.4-1-1.8-1-0.5 0-0.6 1.2-0.2 3q0.5 3-0.2 1.8c-0.4-0.7-0.9-2.1-1-3.3-0.1-1.5 0.2-2.2 1.3-2.4 0.8-0.2 1.8-0.2 2.2 0zm19.4-0.4c0.3 0.3 0.3 0.8 0 1.2-0.4 0.3-0.7 0-0.7-0.6 0-0.7 0.3-0.9 0.7-0.6zm-39.8 6.6c-0.2 0-0.4-1-0.4-2.2 0-1.3 0.2-2.3 0.4-2.3 0.3 0 0.5 1 0.5 2.3 0 1.2-0.2 2.2-0.5 2.2zm-13.4-2.9c0.3 0 0.7 0.4 0.9 0.8 0.2 0.4 0.2 0.8 0 0.8-0.2 0-0.6-0.4-0.9-0.8-0.2-0.4-0.2-0.8 0-0.8zm36.7 2.8c-0.4 0-0.7-0.6-0.7-1.4 0-0.7 0.3-1.4 0.7-1.4 0.3 0 0.6 0.7 0.6 1.4 0 0.8-0.3 1.4-0.6 1.4zm-35.1-0.4c0.3 0 0.7 0.3 0.9 0.8 0.2 0.4 0.2 0.8 0 0.8-0.2 0-0.6-0.4-0.9-0.8-0.2-0.5-0.2-0.8 0-0.8zm8.6 4.7c-0.3 0-0.6-0.7-0.6-1.6 0-0.8 0.3-1.5 0.6-1.5 0.3 0 0.6 0.7 0.6 1.5 0 0.9-0.3 1.6-0.6 1.6zm1.9-0.8c0.3 0 1 0.7 1.4 1.4 0.8 1.3 0.7 1.3-0.6 0.2-0.8-0.6-1.4-1.3-1.4-1.4 0-0.1 0.3-0.2 0.6-0.2zm26 0c0.1 0 0.3 0.1 0.3 0.2 0 0.1-0.6 0.8-1.4 1.4-1.3 1.1-1.3 1.1-0.3-0.2 0.6-0.7 1.2-1.4 1.4-1.4zm4 4.2c0.3 0.3 0.3 0.8 0 1.2-0.3 0.3-0.6 0-0.6-0.6 0-0.7 0.3-0.9 0.6-0.6zm-19.2 1.4c0.3 0 0.7 0.3 0.9 0.7 0.2 0.5 0.2 0.8 0 0.8-0.2 0-0.6-0.3-0.9-0.8-0.2-0.4-0.2-0.7 0-0.7zm4.1 0c0.2 0 0.3 0.1 0.3 0.4 0 0.2-0.4 0.6-0.9 0.9q-1 0.6-0.4-0.4c0.3-0.5 0.8-0.9 1-0.9zm11.2 0.2c0.3 0.3 0.3 0.8 0 1.1-0.4 0.4-0.6 0.1-0.6-0.6 0-0.6 0.2-0.9 0.6-0.5zm-8.8 8.4c0.1 0 0.3 0.2 0.3 0.4 0 0.2-0.4 0.7-1 1q-1 0.6-0.3-0.4c0.3-0.5 0.8-1 1-1zm-6.5 1.6c0.3 0 0.7 0.4 0.9 0.8 0.2 0.4 0.2 0.8 0 0.8-0.2 0-0.6-0.4-0.9-0.8-0.2-0.4-0.2-0.8 0-0.8zm4.1 0c0.2 0 0.3 0.2 0.3 0.4 0 0.2-0.4 0.7-0.9 1q-1 0.6-0.4-0.4c0.3-0.5 0.8-1 1-1z"/>
		<path id="Path 4" class="s1" d="m159.2 80.1c0 0.7 0.3 0.9 0.6 0.6 0.3-0.3 0.3-0.9 0-1.2-0.3-0.3-0.6 0-0.6 0.6z"/>
		<path id="Path 5" class="s2" d="m141.7 48.8c-1 0.8-1 1.1 0.1 2.1 0.7 0.7 2.1 1.2 3.1 1.2 0.9 0 1.8-0.4 2-0.8 0.2-0.4-0.2-1.2-0.8-1.8-0.6-0.5-1-0.7-0.9-0.5 0.1 0.3-0.4 0.1-1-0.3-1-0.7-1.6-0.7-2.5 0.1zm14-0.2c-0.2 0.4-0.7 0.6-1 0.4-0.3-0.1-1 0.1-1.5 0.6-0.5 0.5-0.7 1.3-0.4 1.7 0.3 0.4 1.2 0.8 2.1 0.8 0.9 0 2.2-0.6 3-1.4 1.3-1.3 1.3-1.4-0.2-2.1q-1.5-0.8-2 0zm-34.4 8.6c0 0.7 0.3 0.9 0.6 0.6 0.4-0.3 0.4-0.8 0-1.2-0.3-0.3-0.6 0-0.6 0.6zm46.9 11.1c0.3 0.4 0.7 0.8 0.9 0.8 0.2 0 0.2-0.4 0-0.8-0.2-0.5-0.6-0.8-0.9-0.8-0.2 0-0.2 0.3 0 0.8zm-33.5 3.9c0 0.7 0.3 0.9 0.7 0.6 0.3-0.3 0.3-0.8 0-1.2-0.4-0.3-0.7 0-0.7 0.6zm19 0.8c0 0.7 0.3 0.9 0.6 0.6 0.3-0.3 0.3-0.9 0-1.2-0.3-0.3-0.6 0-0.6 0.6z"/>
		<path id="Path 6" class="s4" d="m148.3 34c-0.6 0.7-0.6 1.3-0.1 1.5 0.4 0.3 0.7 0 0.6-0.6-0.1-0.5 0.2-0.9 0.8-0.7 0.5 0.1 0.8-0.2 0.6-0.6-0.2-0.5-0.6-0.8-0.7-0.8-0.2 0-0.7 0.5-1.2 1.2zm-4.5 14.6c0.2 0.4 0.6 0.7 0.8 0.7 0.3 0 0.4-0.3 0.4-0.7 0-0.5-0.3-0.8-0.8-0.8-0.5 0-0.7 0.3-0.4 0.8zm10.7 0c0 0.4 0.4 0.6 0.8 0.3 0.4-0.2 0.8-0.5 0.8-0.7 0-0.3-0.4-0.4-0.8-0.4-0.4 0-0.8 0.3-0.8 0.8zm-13.1 2.3c0.3 0.5 0.7 0.8 0.9 0.8 0.2 0 0.2-0.3 0-0.8-0.2-0.4-0.6-0.8-0.9-0.8-0.2 0-0.2 0.4 0 0.8zm15.7 0.2q-0.6 1 0.4 0.4c0.5-0.3 1-0.8 1-1 0-0.2-0.2-0.4-0.4-0.4-0.2 0-0.6 0.5-1 1zm-10.4 0.4c-0.1 0.6-0.5 0.8-1.1 0.5-0.7-0.4-0.8-0.3 0 0.6 0.6 0.6 1.2 0.9 1.5 0.7 0.2-0.2 0.3-0.9 0-1.6-0.2-0.7-0.4-0.8-0.4-0.2zm5.5 0.4c0 0.8 0.3 1.4 0.7 1.4 0.5 0 1.1-0.5 1.4-1q0.6-1-0.4-0.4c-0.5 0.3-1.1 0.2-1.3-0.4-0.2-0.5-0.4-0.4-0.4 0.4zm-10.9 1.2c0.3 0.3 0.8 0.3 1.1 0 0.3-0.3 0-0.6-0.6-0.6-0.6 0-0.8 0.2-0.5 0.6zm15.8 0c0.3 0.3 0.8 0.3 1.1 0 0.3-0.3 0-0.6-0.6-0.6-0.6 0-0.9 0.2-0.5 0.6zm-12.2 18.3c-0.3 0.7 0.1 2.5 0.7 4q1.2 2.7 1.6 1.5c0.2-0.6 0-1.8-0.4-2.7-0.5-0.9-1-2.1-1.2-2.8-0.2-1-0.3-1-0.7 0zm9.5 1.3c-0.4 0-0.7-0.5-0.7-1 0-0.6 0.3-1.1 0.7-1.1 0.3 0 0.6 0.5 0.6 1.1 0 0.5-0.3 1-0.6 1zm-1.9 2.3c-0.3 1.3-0.3 2.4 0 2.5 0.2 0.1 0.8-0.6 1.3-1.5 0.6-1.3 0.6-2.1 0-2.6-0.6-0.5-1 0-1.3 1.6z"/>
	</g>
</svg>