<svg version="1.2" xmlns="http://www.w3.org/2000/svg" viewBox="0 0 300 150" width="300" height="150">
	<title>New Project</title>
	<style>
		.s0 { fill: #f6f6f6 } 
		.s1 { fill: #f9f9f9 } 
		.s2 { fill: #010101 } 
		.s3 { fill: #040404 } 
		.s4 { fill: #eeeeee } 
		.s5 { fill: #f2f2f2 } 
		.s6 { fill: #080808 } 
		.s7 { fill: #9d9d9d } 
		.s8 { fill: #d5d5d5 } 
		.s9 { fill: #dddddd } 
		.s10 { fill: #8a8a8a } 
		.s11 { fill: #111111 } 
		.s12 { fill: #1c1c1c } 
		.s13 { fill: #e4e4e4 } 
		.s14 { fill: #aeaeae } 
		.s15 { fill: #2d2d2d } 
		.s16 { fill: #eaeaea } 
		.s17 { fill: #c0c0c0 } 
		.s18 { fill: #212121 } 
		.s19 { fill: #161616 } 
		.s20 { fill: #cdcdcd } 
		.s21 { opacity: .2;fill: #b2b2b2 } 
		.s22 { fill: #b8b8b8 } 
		.s23 { fill: #848484 } 
		.s24 { fill: #c8c8c8 } 
		.s25 { fill: #454545 } 
		.s26 { fill: #999999 } 
		.s27 { fill: #7d7d7d } 
		.s28 { fill: #929292 } 
		.s29 { fill: #a0a0a0 } 
		.s30 { fill: #555555 } 
		.s31 { opacity: .8;fill: #5c5c5c } 
		.s32 { opacity: .7;fill: #434343 } 
		.s33 { fill: #5f5f5f } 
		.s34 { fill: #343434 } 
		.s35 { fill: #676767 } 
		.s36 { opacity: .3;fill: #545454 } 
		.s37 { fill: #a7a7a7 } 
		.s38 { fill: #787878 } 
		.s39 { fill: #3c3c3c } 
		.s40 { opacity: .8;fill: #545454 } 
		.s41 { fill: #6f6f6f } 
		.s42 { fill: #4d4d4d } 
		.s43 { opacity: .7;fill: #545454 } 
		.s44 { opacity: .3;fill: #5c5c5c } 
		.s45 { opacity: .3;fill: #303030 } 
		.s46 { opacity: .7;fill: #292929 } 
		.s47 { fill: #000000 } 
	</style>
	<g id="Background">
		<path id="Path 4" class="s0" d="m169 49v-2h25 13v2zm64 0v-2h16v2zm32 0v-2h3 8v2zm-40 5h-4l1-3h2 2zm-46 2l2-2h3 7 2v2h-4l-5 1h-1zm93 2v-4h9 1l-1 4-5 2h-1zm-56-2l6-1-1 4-4-1zm65 4l5-2v5l-5-1v4l-5-2v-3zm-67 1l2-2 3 4h-3-1-1v-1zm-38 2l5-1-1 5-4-3zm17 0l7-1 1 1v1l-1 3h-5-2zm48 3l3-2 5 1-1 5h-4l1 5h-3v-4zm26 1v-2h2 3l-2 5zm-72 3l4 1v3l-4 1v4l5-1v3l-4 3-3-1-3-4 2-6h3zm-25 1l3-1h4l1 3v3l-2 6v1l-3 1 2 1 2 3-4 2-3-4zm79 0l3-1-1 9-2-1-3 6-2 2-4-2 2-6 6-1zm-32 4v-2h2 2l-2 4-2 1zm50 5l2-1h5v3l-2-1h-5zm-3 5l3-4v1 3h4v2h-2l-5 1 3 3h5 1 2 1l-3 2h-18v-1h4l-1-3-5-1-3-1 1-3h1l4-1zm17 1l-1-4 6 1v7h-1l-2-3zm-88 2l1-3h2 5l1 2-1 2-4 2 4-1h3v3h-8l-3-2-2-1-4-1v-1zm54 3l-4-2 1-2 3 1zm-32 0l2-1 1 1 2 2-2 1zm73 7l3-1v4h-2l-1-2zm-118 3l-2-2h3 16v2zm34 0v-2h13 7l1 2h-9zm27 0v-2h5l-1 2z"/>
		<path id="Path 5" class="s1" d="m207 49v-2h26v2zm69 0v-2h12v2h-3zm-59 9l4 1 1-4h3l2 1 2 2v2l-4 1-3 3h-1l-2-1-3-4zm59 6l5 2v-4l5 1v20l-6-1 1 4h-2l-5-4v-3h-5v-2l1-7 2-5zm-58 3h-3v-4h1zm-26 2l1-2h2v3zm24 3l1-2h3l-1 3h-2zm26 3h3l-1-5h4l1 1-1 6-6 1zm47-4l2-1v23h-2zm-124 23l2-15v15zm75-2h2l-2-8 4 2v1l-1 2 4 2 8 1v1h-15zm-75 9v-3h3v1l2 2zm22 0v-2h17v2zm40 0l2-2h2v2zm8 0l1-2h42l-2 2zm50 0v-2h3l1 2z"/>
		<path id="Path 6" class="s2" d="m276 101l2-2h4l-1 2z"/>
		<path id="Path 7" class="s3" d="m281 101l1-2h3v2z"/>
		<path id="Path 8" class="s4" d="m175 53l4-2 2 3-2 2h-1-7-1l4-3zm37 0l5-2-3 4zm-19 3v-2h3 3l8 2zm45 3l-4-5h10l2 4h-2-3zm43-1l1-4h2 2v1 3l-5 2zm-32 0l1-3h3v3l-1 1zm-55 0h4l1 2h-6zm28 6l3-3 2 4v3 3l-3-2zm18-1l1-2h3v1 2l-3 2zm-60 4l1-5h2 4v5h-3l-3 1zm38 0l-2-4h3l2 1zm-48 4v-7l2 2 1 1v3zm84-5v-1h6v2h-1l-3 1zm-54 12l-5 1v-4l4-1 1 1zm-24 4l2-6 3 4zm45 1l3-5 2 3-1 3h-2-1zm-36-2l5-2 3 4h-8zm27 3v-3l3 2 4 3-2 2zm-31 1h4l-3 2h-1zm68 4l-1-5h3l-1 3 3 1zm-56-1l-4-3h5zm47 5h-5l2-3 3 2z"/>
		<path id="Path 9" class="s5" d="m165 50v-3h4v2l-1 1zm84-1v-2h16v2h-12zm39 0v-2h3v2l-3 1zm-42 9l-2-4h5l1 1-1 3v2zm16-2l-1-2h5 6v4l-3 2v-2l-2 2-1-4zm-31 2l1-3 6 6v2l-6-1v-1zm-58 1l-1-2 6 1h2v2zm15 2v-3h1 5l-1 2-3 2zm61 4l1-1h1l3 1v1l-2 4-3 1-1-1zm11 2v-2h7v2l-2 1h-1-1zm-69 4l1-2 3 1v3h-3zm28 2l1-3h1 2l-1 3h-1zm-5 4l3-2v3l-2 1-1-1zm3 1l2-1 2 1h3l-3 5zm-21 6l4-3 1 2v2h-5zm76 1l2-3 5 4v1h-3-4-1v-2zm-26-1h2l1 5-2-1-3-1v-1zm-76 3v-1l3 4-3-1zm31 2l1-2 2 2v1h-3zm3 4v-3l3 3zm72-2h3 4l2-1h1v2l-1 1h-1-11zm-101 4v-3l2 2v1zm47 1l5 1h-2z"/>
		<path id="Path 10" class="s6" d="m255 53h-18v-3h16 2zm-59 42l14-2v1l-1 4h-7z"/>
		<path id="Path 11" class="s7" d="m168 50l1-1h38 26 16 4v1h-16-4l-9 1h-2-5l-10-1h-3l-6 1-2 2-5-2v3h-7v-3h-5l-4 2v-3h-5zm32 17l1-3 2 3h3v1l-4 8v2zm-19 27v-4h3l-2 3 3 3v1zm31 1l2-2 3 2v4h-13-17-16l14-1h9 8 7l5-1z"/>
		<path id="Path 12" class="s8" d="m291 49v-2h1v26 28h-1v-4-4-23l-2 1v-4l2-13zm-95 4l2-2 2 2-1 1h-3zm29 1l1-3 3 2-2 3-2-1zm-55 9v-7h1l1 1 1 2 1 3h-1zm94 7v-2h1l1 3zm-51 2l1-1 2 1 1 1v2l-3 2h-2zm6 5l2-4h1 4v2l-5 3zm6 7l1-3h1l2 2zm42-2v-1h5l-3 1zm-33 5l2-2 3 1-1 1-5 5h-1v-1l-1-3zm33 4l-3-3 5-1zm-66-1l-4 1 4-2zm17 4l2-1 2 3 3 1-1 2h-7v-4z"/>
		<path id="Path 13" class="s9" d="m191 54v-3l5 2v1h-3zm17 1l4-2 2 2v1l-4 2-2-1v-1zm6 6v-5h2l1 2-1 1zm-34-3l3-1h1l4 1v3l-1 1h-4l-3-2zm58 1l3-1v3l-1 2-2-2zm-6 4v-1l6 1-5 1zm-15 7l1-2 3 2h-1zm35 10h3l-1-3 3 3 6-1h1l3 1v1l-3 4-4-4-4 2-4 1zm-38 11l-2-7 5 4v2l-2 1zm-26 0l-1-2 4 1-1 3-1 3-2-1zm30 0l3-2 2 1-1 2 4 1 5-2h1v1l-4 5h-1l-5-1-2-3zm-24 5l-1-5 3 2-1 2zm94-2l1-1h2v4l-3 1v-3z"/>
		<path id="Path 14" class="s10" d="m253 50v-1h12 11 9l-5 1-7 1 7 2 1 1h-9-6v-1h1 5l-5-2-9-1h-3zm8 8v-2h1 4l1 4-1 1-2-1zm8 2l3-2 3 2-1 3-5-1h-1zm7 0l5-2v2l-5 1zm-42 8h4l-3 4zm2 5l2-1 3 5 1-6v4 3l-2 6h-1v-5l-2 2-1-7zm-15 5l5-3 2 4-1 2h-1l-2-3zm-17 11l1-2h3l2 6-14 2h-1l1-2h8 3l-3-3z"/>
		<path id="Path 15" class="s11" d="m255 53v-3h3l3 1-2 2h-1zm11 0l-2-2h3v2zm-39 12h3v-4h2v1 1 4l-5 1zm60 15v-13h1zm-29-11l1-1 1 4zm-50 3l1-3 2 1 2 2-1 5-3 2-1 8h-3l-1-4zm27 5l-3-1 3-3h1v1zm-8 4l1-2h5l2 3h-3v5l-5 1v2h-2l-2-6h2l4-1zm60 10v-8l1 8z"/>
		<path id="Path 16" class="s12" d="m198 51l6-1v3h-4zm26 0l9-1-1 4-3-1-3-2zm43 2v-2l5 2zm19 1l1-1h1v6h-1l-1-4zm-54 17l1-4 1 1 1 4v1l-3 3 3 1-2 2h-5l-2-4v-2l2-2 1-1 1 6zm-30 5l4-8 1 3-3 5zm-20-4l5-1v1l-3 1zm-14 23v-20l2 12v2l2 4 2 2-1 2zm66 2h7v-3l2 2h5l1-2v3h4l10-1 2-2v2h7l2-1-1 2h4 5l-48 1z"/>
		<path id="Path 17" class="s13" d="m227 56l2-3 3 1v1l-1 3h-2zm-22 4l3-3 2 1-2 3h-3zm-35 3l3-1-1 4-2-2zm44 8v-8h1v4h3v1l-1 2-1 2zm-41-4l3-3 4 3 1 1-1 2-1 1-1 2-1-3h-4zm22 0h5v8l-1-1v-3l-4-1zm28 3l1-1 3 2h1l-2 2h-4zm-6 18l2-2 2 3-3 2-1-1zm-40 0l4-1h1l5 1v1l1 2-3 5-3-3 2-3h-3l-9 3-2-4 3 1zm-12 10v-4h2l1 1v3z"/>
		<path id="Path 18" class="s14" d="m288 50l3-1v5l-2 13v4 22l-1 1v-3l-1-8v-3l1-13v-8-6zm-110 8v-2h1l4 1-3 1zm75 0l3-2v2l1 6 2-2 1 2 1-3 1 3 2-4 2 1 2 1h1v3h-2-7-6v-3l-3 2h-1l2-5zm-63 4l3-2h6l1 2-7 1zm-6 14l2 1 2-5h1l-2 6-5-1zm28 5l2-3 1 1v4zm44 2l4-2 4 4z"/>
		<path id="Path 19" class="s15" d="m168 75v-25h2l4 3-4 3v7 1 7 15 1zm32-22h4v-3h3l1 5v1h-1l-8-2zm10 5l4-2v5 1l-6 1v-2zm17 10l5-1v-4l1 1v3l-1 4-3-1-1 1h-1zm35 4l1-4h1v2l-1 2zm-60 6v-2h2l-1 4zm70 13l-1-4h1l1 4zm3 0l1-4h3l2 4h-2-3zm8 0v-4l2 3z"/>
		<path id="Path 20" class="s16" d="m249 54l9-1h1l2 1 1 2h-1-5l-3 2v-3h-3zm-50 6l-1-2h5v3l-2 2-1-1zm26 1l4-1 1 1v4h-3zm-38 1l1-1 2 1 3 1v4l-1 2-1 2-4-4zm68 8l-1-4 2 2zm-79 12l5-2 4 1v2h-9zm-1 3h6v2l-4 1zm64 1v-2h1l2 8h-2l-3-2 1-3z"/>
		<path id="Path 21" class="s17" d="m217 51h5l-1 3h4v1h-3l-6 1h-2v-1zm44 10v-3l3 2-2 4zm-17 3v-2l4 2 1-2 1 2-1 1zm25 1v-3l5 1 2 1-4 1zm-17 5l2-4 1 4-1 7 1 3h-3l-1-1zm-15 11l2-2v5 2l-3-1v-2zm34 4h-4v-3h2l3 3zm-24 6v-3l2 1 4-1 5 1 1 3h-4zm-21 2l-4-1 1-2h2 2zm-52 3l1-1h2z"/>
		<path id="Path 22" class="s18" d="m174 53l-4-3h5v3zm34 2l-1-5 10 1-5 2zm0 8l6-1v1 8l-1 1-2-2v-4h-3l1 3-1 3-1-1-1-3v-1zm27 14l1-3 1 7-1 2-1-1-2-3zm-16 9l3-2h1l2 6h-2l-2-1zm8 2l5-1h2l-3 1 1 3h-1zm1 9l4-5h1l1 5v1h-4zm-39-1l3-2 2 3v1h-9v-1-1l2-1zm99 2h-3v-3h3z"/>
		<path id="Path 23" class="s19" d="m284 54v-3l3 2-1 1zm3 13v-8h1v8zm-27 11h-3l1-9 2 3zm-52 9l1-8 3-2h2v1l-2 3v3zm24 0v-5h3l1 1v2l-2 2zm54 5l1-1h1v3 1h-3v-2zm-77 6l1-4 2 1 2 2zm-15-2l1-1h1l6 3h-8v-1z"/>
		<path id="Path 24" class="s20" d="m181 54l-2-3h5v3zm-9 12l1-4h1l2 1v1l-3 3zm79-2l3-2v3zm-36 15l2-1 4 5 1 1-3 2-4-3zm31 5l3-6 2 1 1 1v4h-1-3zm-71 1l-2-1 3-1h9 8l3 1v1h-2-5-4-4zm-3 8l9-3v4 2l-4-2-2-2v3l-1 1v-1zm42 0v-2h1l3 3-1 1z"/>
		<path id="Path 25" class="s21" d="m292 102h-128 52z"/>
		<path id="Path 26" fill-rule="evenodd" class="s22" d="m165 55v-5h3v45l-1-1v-19zm9 7l-1-3 7 1 3 2h-2l-5 1zm29-1l2-1v1l-2 6-2-3v-1zm29 10l-2 5-1-6zm47 16v-1h2l2 1v4h-2z"/>
		<path id="Path 27" class="s23" d="m233 92l5-5-1 3-2 3h5 15 18 11l-7 1-3 1-2 1h-7v-2l-2 2-6-1-4 1v1h-4v-3l-1 2h-5l-2-2v3h-7z"/>
		<path id="Path 28" class="s24" d="m164 101v-54h1v3 5l2 20v4l-2 15v4 3zm101-33l2-1 3 3-1 7-3-6zm-80 17h4l4 3h-6l-5-1zm39 14l1-2h2 1l2 1-1 1-2 2h-2z"/>
		<path id="Path 29" class="s25" d="m232 54l1-4h4v3h18 3l-9 1h-5-10l4 5v2l-6-6zm-28 22l3-5 1 1-4 11-1-2v-1z"/>
		<path id="Path 30" fill-rule="evenodd" class="s26" d="m259 62l-2 2-1-6zm-21 1v-2l2 2 1 3 1 5-1 6-3-5-2 1h-1v-1l3-4h-4l-1-1v-3zm25 9l1-2 2 1 3 6v2l-2 1-3-1z"/>
		<path id="Path 31" class="s27" d="m249 60v-2l3 1-2 5-1-2zm-60 36l1-3 2 1zm88-2l7-1h1v2 3h3v1h-3-3-4-42-5-2l1-1h4l48-1-5-2z"/>
		<path id="Path 32" class="s28" d="m256 58v-2h5v2 3l-1 3-1-2zm3 10v-1h1l3 1-1 4-1 6h-1v-6zm-79 5l1-1h1l2 1v3l-2 1zm28 14l4-3 2 7v2l-2 2-2-1v-1z"/>
		<path id="Path 33" class="s29" d="m189 58v-2h4 14 1v1l-3 3-2 1v-3h-5-4zm55 3v-3h2l3 2v2l-1 2-4-2zm30 2l1-3h1v1 3zm-5 19l3-1 2 1-2 3zm3 5h4l-1 4h-2z"/>
		<path id="Path 34" class="s30" d="m259 53l2-2-3-1 9 1h-3l2 2v1h-5zm-50 16l-1-3h3v4zm-22 2l-3-4h3l4 4-2 1h-1-1zm13 4v-8l2 11 1 2v1l-2 2-1-2v-3z"/>
		<path id="Path 35" class="s31" d="m216 102v-1h9 2 4 4 41 5 4 4 2 1v1z"/>
		<path id="Path 36" class="s32" d="m194 47v-1h74v1h-3-16-16-26z"/>
		<path id="Path 37" class="s33" d="m241 61v-3h3v3zm-63 12l1-2 1 2 2 4 5 1 2-6 2-1 1 2-2 6-5 2-4-1-3-4z"/>
		<path id="Path 38" fill-rule="evenodd" class="s34" d="m280 50l-7 1 7 2zm-17 29h1l-1-7h-1l-1 6zm-89 17v-1l-1 2-5-2v4h3l14-1v-1l-4-3v2l-4-2v1z"/>
		<path id="Path 39" class="s35" d="m229 60v-2h2l1 3h-2zm-48 8l3-1 3 4-5 1h-1l-1-2zm3 5l3-1h1l-2 5-2-1zm73 22l6 1-10 1v-1z"/>
		<path id="Path 40" class="s36" d="m164 102v-56 1 54z"/>
		<path id="Path 41" class="s37" d="m172 57l-1-1h7v2zm12 0l5-1v2h-1zm19 10l2-6h3v2l-2 4zm-13 26l1-3 2 1 1 5v1l-2-3zm-5 3l3-5-1 4z"/>
		<path id="Path 42" class="s38" d="m267 60l2-2v2l-1 2-2-1zm-11 8l3-1v1l-1 1-1 9h3 1l2 1-6 1-3-3 1-7zm-55 15l2-2 1 2 1 4-1 2-2-2-1-2z"/>
		<path id="Path 43" class="s39" d="m280 50l5-1h3v1 3h-1l-3-2v3h-2-1l-1-1zm-101 21l1-1 1 2-1 1zm48 19v-2l4 3-5 2zm47 5l3-1v1 2h-4z"/>
		<path id="Path 44" class="s40" d="m164 102v-1h1 5 17 17 12v1z"/>
		<path id="Path 45" class="s41" d="m267 91l2-4h2l1 4zm10 6v-2l5 2z"/>
		<path id="Path 46" class="s42" d="m286 58v-3l1 4v8 13 3 8l-1 1v-2-7-20zm-68 9l3-3h1l2 5-1 1h-2l-3-2z"/>
		<path id="Path 47" class="s43" d="m164 47v-1h30v1h-25-4z"/>
		<path id="Path 48" class="s44" d="m292 101v-28h1l-1 29z"/>
		<path id="Path 49" class="s45" d="m292 47v-1l1 27h-1z"/>
		<path id="Path 50" class="s46" d="m268 47v-1h24v1h-1-3-12z"/>
	</g>
	<path id="DEVALUARG." class="s47" aria-label="DEVALUARG."  d="m21.8 75.7q0 2.6-0.7 4.4-0.6 1.8-1.7 2.9-1.1 1.1-2.7 1.6-1.5 0.6-3.3 0.6-1.9 0-3.8-0.5v-18q1.9-0.5 3.8-0.5 1.8 0 3.3 0.6 1.6 0.5 2.7 1.6 1.1 1.1 1.7 2.9 0.7 1.9 0.7 4.4zm-9.7-7.2v14.4q0.7 0.1 1.5 0.1 1.4 0 2.4-0.4 1.1-0.4 1.8-1.3 0.7-0.9 1.1-2.2 0.4-1.4 0.4-3.4 0-3.8-1.5-5.5-1.4-1.8-4.3-1.8-0.4 0-0.8 0-0.3 0-0.6 0.1zm24.7 16.5h-11.1v-18.6h10.4v2.1h-7.9v5.7h6.9v2.1h-6.9v6.6h8.6zm1.6-18.6h2.7q0.3 1.9 0.9 4.2 0.5 2.2 1.1 4.4 0.7 2.3 1.3 4.3 0.6 2 1.2 3.6 0.4-1.6 1.1-3.6 0.6-2.1 1.3-4.3 0.6-2.3 1.1-4.5 0.6-2.2 1-4.1h2.5q-0.2 1.2-0.7 3.3-0.6 2-1.3 4.5-0.8 2.5-1.7 5.3-0.9 2.8-1.9 5.5h-3.1q-0.9-2.7-1.8-5.5-0.9-2.8-1.6-5.3-0.8-2.5-1.3-4.5-0.5-2.1-0.8-3.3zm29.3 18.6h-2.6l-1.1-4.9h-7.1l-1.1 4.9h-2.5q0.5-2 1.1-4.3 0.6-2.3 1.4-4.7 0.7-2.5 1.5-4.9 0.8-2.4 1.7-4.7h3.1q0.9 2.3 1.6 4.7 0.8 2.4 1.5 4.9 0.8 2.4 1.4 4.7 0.6 2.3 1.1 4.3zm-7.2-16.4q-0.7 1.9-1.5 4.4-0.8 2.5-1.6 5.1h6q-0.7-2.7-1.5-5.2-0.7-2.5-1.4-4.3zm12.7 14.3h8.6v2.1h-11.1v-18.6h2.5zm17.3 2.5q-1.7 0-2.8-0.5-1.2-0.4-1.9-1.3-0.7-0.9-1-2.1-0.4-1.3-0.4-2.9v-12.1h2.5v11.9q0 1.4 0.2 2.3 0.3 1 0.8 1.5 0.4 0.6 1.1 0.8 0.7 0.3 1.5 0.3 0.8 0 1.5-0.3 0.7-0.2 1.1-0.8 0.5-0.5 0.7-1.5 0.3-0.9 0.3-2.3v-11.9h2.5v12.1q0 1.6-0.4 2.9-0.3 1.2-1 2.1-0.7 0.9-1.9 1.3-1.1 0.5-2.8 0.5zm22.2-0.4h-2.6l-1.1-4.8h-7.1l-1.1 4.8h-2.5q0.5-2 1.1-4.3 0.6-2.3 1.4-4.7 0.7-2.4 1.5-4.9 0.8-2.4 1.7-4.6h3.1q0.9 2.2 1.6 4.6 0.8 2.5 1.5 4.9 0.8 2.4 1.4 4.7 0.6 2.3 1.1 4.3zm-7.2-16.4q-0.7 1.9-1.5 4.4-0.8 2.5-1.6 5.1h6q-0.7-2.7-1.5-5.2-0.7-2.5-1.4-4.3zm20.4 3.5q0 1.7-0.9 3.1-0.9 1.3-2.4 2 0.4 0.7 1 1.6 0.6 0.9 1.1 2 0.6 1 1.1 2.1 0.6 1.1 1.1 2.1h-2.6q-1-2.1-2-4.1-1.1-2-2.1-3.2-0.2 0-0.5 0-0.3 0-0.5 0h-2.1v7.3h-2.4v-18.3q0.4-0.1 1-0.2 0.6-0.1 1.2-0.1 0.6-0.1 1.2-0.1 0.6 0 1.1 0 3.3 0 5 1.5 1.7 1.4 1.7 4.3zm-6.5-3.7q-0.7 0-1.4 0-0.6 0-0.9 0.1v7.2h1.6q1.1 0 2-0.2 0.8-0.1 1.4-0.5 0.7-0.4 1-1.1 0.3-0.7 0.3-1.9 0-1.1-0.3-1.8-0.3-0.7-0.9-1-0.5-0.5-1.3-0.6-0.7-0.2-1.5-0.2zm19.8 14.5v-7h2.5v8.7q-0.6 0.2-1.9 0.5-1.2 0.3-3 0.3-1.6 0-3-0.6-1.4-0.7-2.4-1.9-0.9-1.2-1.5-3-0.5-1.9-0.5-4.2 0-2.3 0.6-4.1 0.6-1.8 1.6-3 1.1-1.3 2.4-1.9 1.4-0.7 3-0.7 1 0 1.8 0.2 0.8 0.1 1.3 0.3 0.6 0.3 1 0.5 0.3 0.2 0.5 0.3l-0.8 2.1q-0.7-0.5-1.7-0.9-0.9-0.3-1.9-0.3-1.2 0-2.2 0.5-0.9 0.6-1.6 1.5-0.7 1-1.1 2.4-0.4 1.4-0.4 3.1 0 1.7 0.3 3.1 0.4 1.4 1.1 2.4 0.6 1 1.6 1.5 1 0.6 2.2 0.6 0.9 0 1.4-0.2 0.4-0.1 0.7-0.2zm13.5 0.2q0 0.9-0.6 1.6-0.6 0.7-1.6 0.7-1 0-1.6-0.7-0.6-0.7-0.6-1.6 0-0.9 0.6-1.6 0.6-0.7 1.6-0.7 1 0 1.6 0.7 0.6 0.7 0.6 1.6z"/>
</svg>