<svg width="188" height="74" viewBox="0 0 188 74" fill="none" xmlns="http://www.w3.org/2000/svg">
<g clip-path="url(#clip0_1_14)">
<path d="M110.012 20.277C109.267 22.226 107.382 23.616 105.174 23.616C102.316 23.616 99.991 21.291 99.991 18.433C99.991 15.574 102.316 13.249 105.174 13.249C107.374 13.249 109.254 14.629 110.005 16.567H114.663C114.197 14.21 112.884 12.155 111.043 10.745L109.898 8.456C106.791 2.168 105.722 1.517 105.371 1.303C103.421 0.117 93.477 0 93.379 0C93.28 0 83.337 0.117 81.386 1.303C81.036 1.517 79.966 2.168 76.859 8.456L75.757 10.671C73.384 12.437 71.839 15.255 71.839 18.433C71.839 23.773 76.183 28.118 81.524 28.118C84.497 28.118 87.157 26.769 88.933 24.654H97.761C99.54 26.769 102.201 28.118 105.174 28.118C109.883 28.118 113.814 24.738 114.678 20.277H110.012ZM91.028 20.278C91.028 20.278 91.029 20.278 91.028 20.278L86.363 20.277C85.617 22.226 83.732 23.616 81.524 23.616C78.666 23.616 76.34 21.291 76.34 18.433C76.34 15.574 78.666 13.249 81.524 13.249C83.724 13.249 85.603 14.629 86.355 16.567H91.026C90.156 12.131 86.25 8.77 81.567 8.749C82.564 6.848 83.338 5.522 83.686 5.035C84.96 4.744 90.041 4.336 93.379 4.336C96.773 4.336 101.775 4.745 103.025 5.003C103.385 5.493 104.175 6.83 105.188 8.748C105.183 8.748 105.178 8.747 105.174 8.747C99.834 8.747 95.489 13.092 95.489 18.433C95.489 19.064 95.554 19.68 95.67 20.278H91.028Z" fill="#121317"/>
<path d="M14.19 46.966C15.469 47.48 16.557 48.196 17.451 49.115L15.835 51.191C14.23 49.66 12.264 48.895 9.937 48.895C8.578 48.895 7.366 49.201 6.3 49.813C5.235 50.425 4.402 51.286 3.802 52.394C3.202 53.503 2.902 54.767 2.902 56.188C2.902 57.62 3.202 58.888 3.802 59.99C4.402 61.092 5.235 61.959 6.3 62.59C7.366 63.22 8.578 63.536 9.937 63.536C11.236 63.536 12.405 63.315 13.446 62.874C14.487 62.433 15.363 61.797 16.073 60.964L17.763 62.782C16.857 63.86 15.727 64.699 14.374 65.299C13.02 65.899 11.505 66.199 9.828 66.199C7.917 66.199 6.22 65.78 4.739 64.941C3.256 64.102 2.096 62.924 1.257 61.404C0.419 59.886 0 58.147 0 56.188C0 54.228 0.424 52.492 1.276 50.98C2.127 49.467 3.312 48.292 4.831 47.453C6.349 46.614 8.064 46.195 9.974 46.195C11.505 46.195 12.911 46.451 14.19 46.966Z" fill="#121317"/>
<path d="M28.803 47.342C30.003 46.577 31.443 46.182 33.12 46.157V49.114C31.063 49.09 29.409 49.663 28.16 50.832C26.911 52.002 26.195 53.579 26.011 55.563V66.089H23.09V46.267H26.011V50.658C26.672 49.213 27.603 48.108 28.803 47.342Z" fill="#121317"/>
<path d="M39.862 39.131C40.23 39.517 40.414 39.998 40.414 40.573C40.414 41.149 40.23 41.633 39.862 42.024C39.495 42.416 39.036 42.612 38.485 42.612C37.933 42.612 37.477 42.419 37.116 42.034C36.755 41.648 36.574 41.161 36.574 40.573C36.574 39.998 36.755 39.517 37.116 39.131C37.477 38.746 37.933 38.553 38.485 38.553C39.036 38.552 39.495 38.746 39.862 39.131ZM37.07 46.268H39.954V66.089H37.07V46.268Z" fill="#121317"/>
<path d="M62.797 47.435C64.236 48.286 65.357 49.477 66.158 51.007C66.961 52.539 67.363 54.277 67.363 56.225C67.363 58.16 66.967 59.887 66.177 61.405C65.387 62.924 64.279 64.103 62.853 64.942C61.425 65.78 59.782 66.2 57.92 66.2C56.168 66.2 54.635 65.817 53.319 65.051C52.001 64.286 50.97 63.218 50.223 61.846V73.382H47.283V46.268H50.223V50.548C50.946 49.14 51.965 48.056 53.282 47.297C54.598 46.538 56.119 46.158 57.847 46.158C59.708 46.157 61.358 46.583 62.797 47.435ZM60.969 62.589C62.047 61.959 62.889 61.08 63.495 59.953C64.102 58.826 64.405 57.559 64.405 56.151C64.405 54.742 64.102 53.481 63.495 52.366C62.889 51.252 62.047 50.376 60.969 49.739C59.892 49.103 58.679 48.784 57.332 48.784C55.948 48.784 54.717 49.096 53.64 49.721C52.562 50.345 51.723 51.224 51.123 52.357C50.523 53.49 50.223 54.754 50.223 56.151C50.223 57.583 50.523 58.857 51.123 59.971C51.723 61.086 52.562 61.959 53.64 62.589C54.717 63.22 55.948 63.535 57.332 63.535C58.679 63.535 59.892 63.22 60.969 62.589Z" fill="#121317"/>
<path d="M78.274 66.236C76.743 66.236 75.518 65.768 74.6 64.831C73.681 63.894 73.222 62.483 73.222 60.596V49.28H70.375V46.911H73.222V41.675H76.125V46.911L82.407 46.856V49.28H76.125V60.064C76.125 61.239 76.345 62.088 76.786 62.608C77.227 63.129 77.888 63.389 78.77 63.389C79.798 63.389 80.852 63.046 81.929 62.36L82.756 64.73C81.324 65.71 79.829 66.211 78.274 66.236Z" fill="#121317"/>
<path d="M100.124 47.453C101.65 48.292 102.84 49.471 103.698 50.989C104.555 52.508 104.984 54.229 104.984 56.151C104.984 58.111 104.555 59.85 103.698 61.368C102.84 62.887 101.65 64.072 100.124 64.923C98.6 65.774 96.87 66.2 94.935 66.2C93 66.2 91.267 65.774 89.737 64.923C88.205 64.072 87.015 62.887 86.163 61.368C85.312 59.85 84.887 58.111 84.887 56.151C84.887 54.216 85.312 52.493 86.163 50.98C87.015 49.468 88.205 48.292 89.737 47.453C91.267 46.614 93 46.195 94.935 46.195C96.87 46.195 98.6 46.614 100.124 47.453ZM91.261 49.794C90.171 50.419 89.326 51.285 88.726 52.394C88.126 53.502 87.825 54.767 87.825 56.187C87.825 57.62 88.126 58.894 88.726 60.008C89.326 61.123 90.171 61.995 91.261 62.626C92.351 63.256 93.575 63.572 94.935 63.572C96.294 63.572 97.519 63.256 98.61 62.626C99.699 61.995 100.544 61.123 101.144 60.008C101.744 58.894 102.044 57.62 102.044 56.187C102.044 54.754 101.744 53.486 101.144 52.384C100.544 51.282 99.696 50.419 98.6 49.794C97.504 49.169 96.282 48.857 94.935 48.857C93.575 48.858 92.351 49.169 91.261 49.794Z" fill="#121317"/>
<path d="M107.75 55.967C107.75 49.871 112.453 45.544 119.038 45.544C123.29 45.544 126.64 47.388 128.106 50.699L123.554 53.145C122.463 51.226 120.845 50.361 119.001 50.361C116.028 50.361 113.695 52.43 113.695 55.967C113.695 59.504 116.028 61.573 119.001 61.573C120.845 61.573 122.463 60.746 123.554 58.789L128.106 61.273C126.64 64.509 123.29 66.39 119.038 66.39C112.453 66.39 107.75 62.063 107.75 55.967Z" fill="#121317"/>
<path d="M149.4 54.537V66.089H143.907V63.568C142.815 65.412 140.708 66.39 137.735 66.39C132.995 66.39 130.173 63.756 130.173 60.256C130.173 56.682 132.693 54.198 138.864 54.198H143.53C143.53 51.677 142.025 50.21 138.864 50.21C136.719 50.21 134.5 50.925 133.032 52.091L130.925 47.99C133.145 46.409 136.419 45.544 139.655 45.544C145.826 45.544 149.4 48.404 149.4 54.537ZM143.53 59.692V57.623H139.504C136.758 57.623 135.891 58.639 135.891 59.993C135.891 61.461 137.134 62.439 139.203 62.439C141.16 62.439 142.853 61.536 143.53 59.692Z" fill="#121317"/>
<path d="M167.269 45.544V50.962C166.78 50.925 166.403 50.887 165.952 50.887C162.715 50.887 160.571 52.656 160.571 56.531V66.089H154.701V45.845H160.307V48.517C161.738 46.56 164.146 45.544 167.269 45.544Z" fill="#121317"/>
<path d="M168.884 64.208L170.84 59.994C172.647 61.16 175.394 61.95 177.877 61.95C180.586 61.95 181.602 61.235 181.602 60.106C181.602 56.795 169.373 60.182 169.373 52.092C169.373 48.253 172.834 45.544 178.742 45.544C181.527 45.544 184.613 46.184 186.531 47.313L184.574 51.49C182.58 50.361 180.586 49.984 178.742 49.984C176.109 49.984 174.98 50.812 174.98 51.866C174.98 55.328 187.208 51.979 187.208 59.956C187.208 63.719 183.709 66.39 177.651 66.39C174.227 66.39 170.765 65.45 168.884 64.208Z" fill="#121317"/>
</g>
<defs>
<clipPath id="clip0_1_14">
<rect width="187.208" height="73.382" fill="white"/>
</clipPath>
</defs>
</svg>
